# xmcd
#
# Track frame offsets: 
#        150
#        12957
#        25177
#        38565
#        49232
#        60477
#        72302
#        85787
#        98137
#        108717
#        121222
#        132170
#        144307
#        158185
#        167535
#        181477
#
# Disc length: 2573 seconds
#
# Revision: 4
# Processed by: cddbd v1.5.2PL0 Copyright (c) Steve Scherf et al.
# Submitted via: ExactAudioCopy v0.95b4
#
DISCID=ce0a0b10
DTITLE=Various Artist - Duke-Peacock's Greatest Hits
DYEAR=1992
DGENRE=Blues
TTITLE0=Big Mama Thornton  - Hound Dog
TTITLE1=Marie Adams  - I'm Gonna Play The Honky Tonks
TTITLE2=Johnny Ace - The Clock
TTITLE3=Big Walter (Price) - Pack Fair And Square
TTITLE4=Johnny Ace  - Pledging My Love
TTITLE5=Junior Parker  - Next Time You See Me
TTITLE6=Bobby Bland  - Farther Up The Road
TTITLE7=Norman Fox and The Rob Roys  - Tell Me Why
TTITLE8=The Original Casuals  - So Tough
TTITLE9=The El Torros - Dance With Me
TTITLE10=James Booker  - Gonzo
TTITLE11=Bobby Bland - I Pity The Fool
TTITLE12=Joe Hinton - Funny (How Time Slips Away)
TTITLE13=Roy Head and The Traits  - Treat Her Right
TTITLE14=O.V. Wright  - Eight Men, Four Women
TTITLE15=Carl Carlton - Everlasting Love
EXTD=
EXTT0=
EXTT1=
EXTT2=
EXTT3=
EXTT4=
EXTT5=
EXTT6=
EXTT7=
EXTT8=
EXTT9=
EXTT10=
EXTT11=
EXTT12=
EXTT13=
EXTT14=
EXTT15=
PLAYORDER=
